<svg width="149" height="21" viewBox="0 0 149 21" fill="none" xmlns="http://www.w3.org/2000/svg">
<g id="Layer_1" clip-path="url(#clip0_1850_9994)">
<path id="Vector" d="M8.74962 3.59695C6.73559 3.44328 5.72858 4.25965 5.72858 6.04607V6.19013H8.74962V9.76297H5.72858V20.5967H2.05203V9.76297H0V6.19013H2.05203V6.04607C2.05203 4.00994 2.61254 2.46363 3.73355 1.40715C4.85457 0.350664 6.52659 -0.110347 8.74962 0.0241145V3.59695Z" fill="#3A3D3F"/>
<path id="Vector_2" d="M22.0306 18.7958C20.5676 20.2652 18.7816 21 16.6725 21C14.5635 21 12.7822 20.2652 11.3287 18.7958C9.8752 17.3263 9.14844 15.5255 9.14844 13.3933C9.14844 11.2611 9.8752 9.4603 11.3287 7.99083C12.7822 6.52136 14.5635 5.78662 16.6725 5.78662C18.7816 5.78662 20.5676 6.52136 22.0306 7.99083C23.4936 9.4603 24.2251 11.2611 24.2251 13.3933C24.2251 15.5255 23.4936 17.3263 22.0306 18.7958ZM13.9223 16.2458C14.6538 16.9949 15.5705 17.3695 16.6725 17.3695C17.7746 17.3695 18.6961 16.9949 19.4371 16.2458C20.1781 15.4967 20.5486 14.5458 20.5486 13.3933C20.5486 12.2408 20.1781 11.2899 19.4371 10.5408C18.6961 9.79165 17.7746 9.41708 16.6725 9.41708C15.5705 9.41708 14.6538 9.79165 13.9223 10.5408C13.1907 11.2899 12.825 12.2408 12.825 13.3933C12.825 14.5458 13.1907 15.4967 13.9223 16.2458Z" fill="#3A3D3F"/>
<path id="Vector_3" d="M30.4959 8.66798C30.8379 7.74596 31.4031 7.05444 32.1917 6.59343C32.9802 6.13242 33.8589 5.90192 34.8279 5.90192V10.051C33.7069 9.91655 32.7047 10.1471 31.8212 10.7425C30.9376 11.338 30.4959 12.3273 30.4959 13.7103V20.5966H26.8193V6.19005H30.4959V8.66798Z" fill="#3A3D3F"/>
<path id="Vector_4" d="M39.5302 14.9204C40.0242 16.726 41.3637 17.6288 43.5487 17.6288C44.9547 17.6288 46.0188 17.1486 46.7408 16.1882L49.7048 17.917C48.2988 19.9723 46.2278 21 43.4917 21C41.1357 21 39.2452 20.2796 37.8201 18.839C36.3951 17.3983 35.6826 15.5831 35.6826 13.3933C35.6826 11.2035 36.3856 9.41228 37.7916 7.96202C39.1977 6.51175 41.0027 5.78662 43.2067 5.78662C45.2967 5.78662 47.021 6.51656 48.3795 7.97642C49.7381 9.43629 50.4173 11.2419 50.4173 13.3933C50.4173 13.8735 50.3698 14.3826 50.2748 14.9204H39.5302ZM39.4732 12.0391H46.7408C46.5318 11.0594 46.0995 10.3295 45.444 9.84928C44.7885 9.36906 44.0427 9.12895 43.2067 9.12895C42.2187 9.12895 41.4017 9.38347 40.7557 9.8925C40.1097 10.4015 39.6822 11.1171 39.4732 12.0391Z" fill="#3A3D3F"/>
<path id="Vector_5" d="M60.9055 5.78662C62.4635 5.78662 63.7508 6.31486 64.7673 7.37134C65.7838 8.42782 66.2921 9.88769 66.2921 11.7509V20.5966H62.6156V12.212C62.6156 11.2515 62.359 10.5168 61.846 10.0077C61.333 9.49872 60.649 9.2442 59.794 9.2442C58.844 9.2442 58.084 9.54193 57.514 10.1374C56.944 10.7329 56.659 11.6261 56.659 12.817V20.5966H52.9824V0.427368H56.659V7.80354C57.552 6.45893 58.9675 5.78662 60.9055 5.78662Z" fill="#3A3D3F"/>
<path id="Vector_6" d="M78.8324 6.19H82.5089V20.5966H78.8324V18.9831C77.9393 20.3277 76.5238 21 74.5858 21C73.0278 21 71.7405 20.4717 70.724 19.4152C69.7075 18.3588 69.1992 16.8989 69.1992 15.0356V6.19H72.8758V14.5746C72.8758 15.5351 73.1323 16.2698 73.6453 16.7788C74.1583 17.2879 74.8423 17.5424 75.6973 17.5424C76.6473 17.5424 77.4073 17.2447 77.9773 16.6492C78.5473 16.0537 78.8324 15.1605 78.8324 13.9696V6.19Z" fill="#3A3D3F"/>
<path id="Vector_7" d="M101.633 5.78662C103.267 5.78662 104.573 6.32447 105.552 7.40016C106.53 8.47585 107.019 9.91651 107.019 11.7221V20.5966H103.343V11.9815C103.343 11.1171 103.134 10.4448 102.716 9.96453C102.298 9.48431 101.709 9.2442 100.949 9.2442C100.113 9.2442 99.462 9.52273 98.9965 10.0798C98.531 10.6368 98.2982 11.4436 98.2982 12.5001V20.5966H94.6217V11.9815C94.6217 11.1171 94.4127 10.4448 93.9947 9.96453C93.5767 9.48431 92.9877 9.2442 92.2277 9.2442C91.4106 9.2442 90.7599 9.52273 90.2754 10.0798C89.7909 10.6368 89.5486 11.4436 89.5486 12.5001V20.5966H85.8721V6.19001H89.5486V7.7171C90.4036 6.43011 91.7242 5.78662 93.5102 5.78662C95.2962 5.78662 96.5502 6.47814 97.3862 7.86117C98.3362 6.47814 99.7518 5.78662 101.633 5.78662Z" fill="#3A3D3F"/>
<path id="Vector_8" d="M120.984 6.19001H124.661V20.5966H120.984V18.8966C119.882 20.2989 118.334 21 116.339 21C114.344 21 112.809 20.2652 111.451 18.7958C110.092 17.3263 109.413 15.5255 109.413 13.3933C109.413 11.2611 110.092 9.4603 111.451 7.99083C112.809 6.52136 114.439 5.78662 116.339 5.78662C118.334 5.78662 119.882 6.48774 120.984 7.88998V6.19001ZM114.201 16.3178C114.942 17.0766 115.883 17.456 117.023 17.456C118.163 17.456 119.108 17.0766 119.858 16.3178C120.609 15.5591 120.984 14.5842 120.984 13.3933C120.984 12.2024 120.609 11.2275 119.858 10.4688C119.108 9.71001 118.163 9.33064 117.023 9.33064C115.883 9.33064 114.942 9.71001 114.201 10.4688C113.46 11.2275 113.09 12.2024 113.09 13.3933C113.09 14.5842 113.46 15.5591 114.201 16.3178Z" fill="#3A3D3F"/>
<path id="Vector_9" d="M135.918 5.78662C137.476 5.78662 138.764 6.31486 139.78 7.37135C140.797 8.42783 141.305 9.8877 141.305 11.7509V20.5966H137.628V12.212C137.628 11.2515 137.372 10.5168 136.859 10.0078C136.346 9.49872 135.662 9.2442 134.807 9.2442C133.857 9.2442 133.097 9.54194 132.527 10.1374C131.957 10.7329 131.672 11.6261 131.672 12.817V20.5966H127.995V6.19001H131.672V7.80354C132.565 6.45893 133.98 5.78662 135.918 5.78662Z" fill="#3A3D3F"/>
<path id="Vector_10" d="M148.288 20.2508C147.813 20.7311 147.243 20.9712 146.578 20.9712C145.913 20.9712 145.343 20.7311 144.868 20.2508C144.393 19.7706 144.155 19.1944 144.155 18.5221C144.155 17.8497 144.393 17.2735 144.868 16.7933C145.343 16.313 145.913 16.0729 146.578 16.0729C147.243 16.0729 147.813 16.313 148.288 16.7933C148.763 17.2735 149 17.8497 149 18.5221C149 19.1944 148.763 19.7706 148.288 20.2508Z" fill="#3A3D3F"/>
</g>
<defs>
<clipPath id="clip0_1850_9994">
<rect width="149" height="21" fill="white"/>
</clipPath>
</defs>
</svg>
